<?xml version="1.0" standalone="no"?>
<!DOCTYPE svg PUBLIC "-//W3C//DTD SVG 20010904//EN"
 "http://www.w3.org/TR/2001/REC-SVG-20010904/DTD/svg10.dtd">
<svg version="1.0" xmlns="http://www.w3.org/2000/svg"
 width="796.000000pt" height="314.000000pt" viewBox="0 0 796.000000 314.000000"
 preserveAspectRatio="xMidYMid meet">

<g transform="translate(0.000000,314.000000) scale(0.100000,-0.100000)"
fill="#000000" stroke="none">
<path d="M679 3045 c-26 -8 -69 -30 -95 -49 -27 -19 -83 -53 -124 -76 -104
-58 -286 -180 -342 -230 -45 -39 -48 -45 -48 -91 0 -34 5 -51 15 -55 13 -5
137 25 190 46 11 4 36 14 55 20 19 7 73 31 119 53 47 21 102 42 122 44 35 5
42 1 90 -44 l52 -50 -27 -47 c-46 -79 -181 -240 -261 -311 -41 -37 -75 -74
-75 -82 0 -38 64 -19 150 46 58 44 270 233 401 359 105 100 144 122 213 122
86 0 114 -20 209 -145 130 -171 239 -266 393 -343 84 -42 134 -88 134 -125 0
-36 40 -106 83 -143 57 -49 103 -71 237 -115 l115 -38 0 -34 c1 -45 40 -101
117 -168 33 -28 72 -70 86 -93 15 -22 39 -51 54 -64 15 -13 33 -42 40 -65 l13
-42 3 49 c4 68 -2 86 -48 142 -21 26 -37 50 -35 52 2 3 33 -13 67 -35 35 -22
79 -50 99 -61 19 -12 44 -31 54 -43 11 -11 33 -26 50 -34 16 -7 51 -31 78 -55
60 -54 63 -30 4 42 -27 33 -74 72 -125 104 -117 71 -132 94 -32 44 47 -23 103
-50 124 -61 22 -10 41 -17 43 -15 3 2 -8 17 -24 33 -15 16 -22 21 -14 11 18
-23 14 -23 -44 3 -31 14 -44 24 -37 31 7 7 18 6 33 -2 13 -7 21 -10 18 -6 -13
14 -190 100 -283 137 -55 22 -115 49 -134 61 -28 17 -32 23 -20 34 11 11 25
12 68 4 30 -5 143 -21 251 -35 108 -13 203 -27 212 -31 8 -3 28 -24 43 -46 43
-62 135 -140 207 -176 64 -31 250 -72 332 -72 24 0 48 -12 83 -40 28 -21 73
-53 102 -71 28 -17 50 -35 48 -39 -2 -4 -69 -76 -150 -159 -113 -116 -153
-151 -173 -151 -20 0 -25 5 -25 25 0 35 -23 86 -48 108 -11 10 -40 21 -64 24
l-43 5 33 -27 c30 -25 33 -32 27 -62 -7 -39 10 -98 38 -130 17 -20 19 -34 15
-125 -5 -113 -28 -182 -86 -256 -36 -47 -48 -67 -35 -59 6 4 18 -2 27 -12 15
-17 15 -19 -4 -36 -11 -10 -20 -24 -20 -31 0 -7 -5 -16 -11 -20 -9 -5 -10 6
-7 41 4 29 2 42 -3 34 -12 -19 -11 -66 2 -90 13 -25 29 -16 29 16 0 15 15 38
40 61 61 57 126 161 170 272 22 56 40 106 40 113 0 6 13 -3 29 -20 38 -41 64
-42 48 -2 -7 19 -7 45 -1 79 9 48 17 59 164 208 l155 157 154 -37 c166 -39
306 -97 335 -137 9 -13 36 -51 60 -84 55 -76 217 -367 235 -423 8 -23 11 -45
6 -50 -4 -4 -10 -1 -13 7 -9 26 -67 79 -92 85 -19 5 -17 2 9 -11 19 -10 37
-25 41 -33 4 -8 12 -25 19 -38 6 -13 8 -28 4 -35 -4 -7 4 -5 17 4 49 33 49 41
-12 161 -98 193 -159 302 -186 330 -20 22 -23 30 -13 42 10 12 9 14 -7 10 -22
-6 -47 20 -38 41 3 8 16 15 28 16 22 0 22 1 3 8 -11 5 -22 5 -25 0 -3 -4 -35
6 -70 23 -36 17 -119 55 -184 84 -66 30 -172 84 -235 120 -185 106 -180 104
-175 90 4 -10 -13 -15 -63 -21 l-67 -7 -33 36 c-31 33 -43 66 -25 66 4 0 7 14
8 30 1 29 0 29 -13 10 -17 -25 -44 -26 -72 -2 -17 14 -22 36 -31 122 -6 58
-14 132 -19 165 l-7 60 -8 -108 c-9 -124 -12 -127 -99 -127 -44 0 -59 5 -81
25 -15 14 -25 29 -21 34 3 6 30 17 59 25 61 18 75 39 100 147 55 236 39 372
-46 402 -29 10 -22 37 10 37 15 0 45 6 67 13 38 11 40 14 34 42 -6 29 -7 29
-8 3 -1 -20 -8 -29 -32 -37 -46 -16 -69 -14 -69 7 0 11 -3 13 -8 6 -11 -18
-72 -28 -72 -12 0 8 -3 9 -8 3 -4 -5 -26 -11 -49 -12 l-43 -1 0 41 c0 32 3 38
12 29 7 -7 23 -12 37 -11 l26 1 -25 7 c-18 5 -31 21 -47 61 -45 109 -20 133
127 127 128 -6 403 -45 466 -66 40 -13 51 -14 47 -4 -6 16 23 17 33 1 4 -6 2
-14 -5 -16 -9 -3 -6 -11 8 -26 11 -12 22 -33 23 -46 l3 -25 -96 3 c-103 3
-111 0 -123 -50 -10 -43 -33 -34 -41 14 -11 60 -24 78 -60 77 -27 -2 -28 -2
-5 -6 41 -8 50 -22 50 -79 l0 -53 30 6 c27 5 30 3 30 -18 0 -33 49 -116 99
-167 44 -45 166 -129 219 -151 37 -16 41 -38 10 -50 -13 -4 -87 -11 -165 -14
l-142 -6 2 87 c1 72 -2 96 -22 139 -12 28 -36 63 -51 77 l-29 26 -20 -68 c-33
-108 -40 -190 -30 -309 12 -131 32 -209 59 -223 11 -6 20 -17 20 -25 0 -8 6
-12 14 -9 9 4 29 -15 55 -50 23 -31 44 -56 48 -56 3 0 -2 9 -12 20 -33 36 -12
29 83 -26 51 -30 97 -52 102 -49 6 4 13 -1 16 -9 8 -20 214 -134 421 -233 86
-40 153 -77 149 -80 -3 -3 2 -12 12 -19 14 -10 15 -16 5 -32 -10 -17 -9 -19 8
-15 24 7 83 -53 117 -118 13 -24 16 -35 8 -24 -60 76 -101 123 -105 119 -2 -2
5 -14 16 -27 30 -33 93 -142 138 -240 22 -47 46 -86 53 -87 6 0 12 -5 12 -11
0 -5 -5 -7 -11 -3 -17 10 -2 -30 38 -108 38 -73 38 -98 -1 -98 -19 0 -27 7
-32 26 l-7 26 -16 -26 c-19 -32 -37 -39 -61 -24 -22 14 -43 55 -35 69 3 5 0 6
-8 3 -9 -3 -16 3 -20 15 -3 12 -11 23 -19 25 -51 16 -53 17 -38 26 9 6 10 10
3 10 -7 0 -24 -10 -38 -23 l-27 -23 41 4 c44 4 71 -10 71 -37 0 -20 70 -91 90
-91 7 0 21 7 31 16 17 15 19 14 32 -19 8 -19 20 -38 26 -41 21 -13 51 -85 51
-120 0 -41 -12 -50 -85 -61 l-50 -8 34 -9 c24 -7 43 -6 60 2 l26 12 -24 -26
c-27 -28 -46 -33 -54 -13 -4 8 -6 7 -6 -3 -1 -11 -12 -15 -40 -15 -30 0 -37 3
-33 15 2 8 -3 5 -13 -8 -22 -30 -13 -38 24 -22 25 10 35 9 63 -4 35 -18 58
-13 148 34 72 37 94 135 55 240 -9 25 -20 57 -23 71 -4 14 -24 40 -44 58 -47
41 -48 57 -3 65 19 4 41 17 50 29 20 29 19 36 -5 30 -16 -4 -18 -8 -9 -19 9
-11 5 -16 -16 -24 -14 -5 -31 -10 -36 -10 -13 0 -11 24 2 37 9 9 5 13 -17 18
-16 4 -34 8 -40 10 -7 2 -44 70 -83 152 -45 92 -96 180 -137 234 -56 74 -76
92 -142 129 -207 116 -260 161 -386 334 -32 43 -78 92 -102 109 l-44 31 0 97
c0 128 7 145 60 152 27 3 54 16 74 34 38 36 191 123 265 152 85 34 408 118
517 134 130 20 171 24 544 48 480 30 642 32 1335 18 352 -7 703 -14 780 -14
77 0 146 -4 153 -8 7 -5 29 -6 49 -2 20 4 33 2 29 -3 -6 -10 199 -26 214 -17
16 10 12 23 -8 29 -26 9 -343 56 -367 55 -54 -2 54 -23 179 -34 28 -3 59 -8
70 -12 19 -6 18 -8 -9 -13 -16 -3 -32 -3 -35 1 -3 5 -48 10 -100 14 -114 7
-130 11 -130 34 0 16 -14 20 -92 30 -436 56 -675 66 -1558 63 -811 -2 -1022 4
-1260 38 -74 10 -236 31 -360 45 -124 14 -342 39 -484 56 -143 17 -270 28
-283 24 -14 -3 -22 -2 -19 3 7 12 -67 20 -264 27 -109 5 -160 3 -151 -3 17
-12 29 -162 13 -162 -6 0 -13 9 -17 20 -3 11 -12 19 -18 17 -12 -2 -12 76 0
117 5 18 -2 19 -198 13 -139 -4 -280 -15 -443 -36 -376 -49 -522 -42 -657 30
-78 42 -126 85 -212 188 -141 170 -226 236 -357 276 -79 24 -367 31 -431 10z
m99 -7 c31 -31 0 -38 -38 -8 l-25 20 26 0 c14 0 30 -5 37 -12z m67 -8 c0 -25
-41 -24 -48 0 -5 18 -2 21 21 18 16 -2 27 -9 27 -18z m30 10 c3 -5 1 -10 -4
-10 -6 0 -11 5 -11 10 0 6 2 10 4 10 3 0 8 -4 11 -10z m-209 -25 c-11 -8 -27
-15 -35 -15 -13 1 -12 4 3 15 11 8 27 15 35 15 13 -1 12 -4 -3 -15z m69 4 c11
-17 0 -20 -21 -4 -17 13 -17 14 -2 15 9 0 20 -5 23 -11z m193 -22 c26 -53 24
-64 -14 -86 l-37 -22 8 23 c3 13 8 30 9 38 1 9 6 21 10 28 13 22 1 23 -38 4
-23 -11 -46 -34 -60 -58 -27 -48 -41 -50 -42 -4 -1 19 -4 45 -8 58 -7 21 -4
22 41 24 26 1 58 1 70 0 13 0 22 2 22 6 -4 29 23 21 39 -11z m150 2 c10 0 5
-5 -11 -11 -27 -10 -45 -47 -32 -67 3 -6 1 -11 -4 -11 -6 0 -12 17 -12 38 -1
37 -1 37 -9 7 -7 -27 -8 -27 -9 -6 -1 29 27 64 47 56 7 -3 21 -5 30 -6z m-500
-39 c-22 -30 -22 -30 -5 -102 10 -39 15 -73 13 -75 -10 -10 -26 9 -26 31 0 13
-9 31 -20 41 -16 14 -17 21 -8 39 11 20 10 20 -9 4 -11 -10 -22 -18 -26 -18
-3 0 -28 -14 -56 -31 -74 -46 -82 -30 -9 18 35 23 84 59 108 82 54 48 69 52
38 11z m82 15 c0 -13 -6 -17 -26 -14 -4 0 -10 -5 -15 -12 -4 -8 -11 -10 -15
-6 -7 6 34 46 49 47 4 0 7 -7 7 -15z m327 -7 c-2 -12 -9 -24 -15 -26 -15 -5
-15 4 -2 29 14 25 21 24 17 -3z m-297 2 c0 -5 -2 -10 -4 -10 -3 0 -8 5 -11 10
-3 6 -1 10 4 10 6 0 11 -4 11 -10z m504 -15 c17 -11 23 -21 16 -25 -6 -4 -14
-19 -18 -35 -11 -38 -44 -50 -74 -26 -19 16 -20 21 -9 35 11 13 11 20 -3 41
-9 13 -16 26 -16 27 0 11 82 -3 104 -17z m-474 11 c0 -3 -4 -8 -10 -11 -5 -3
-10 -1 -10 4 0 6 5 11 10 11 6 0 10 -2 10 -4z m356 -18 c-3 -13 -6 -26 -6 -30
0 -16 -19 -7 -25 12 -8 24 1 40 22 40 11 0 14 -6 9 -22z m22 -41 c-7 -14 -13
-17 -16 -9 -6 19 6 44 18 37 7 -4 6 -14 -2 -28z m-618 9 c0 -3 -39 -30 -87
-62 -49 -31 -113 -76 -143 -99 -54 -42 -97 -64 -85 -45 9 15 130 99 224 157
91 56 91 55 91 49z m810 -28 c0 -4 9 -16 21 -27 l21 -19 -38 5 c-51 6 -82 -15
-65 -43 9 -13 11 -14 8 -3 -7 23 12 39 44 39 39 0 43 -13 11 -42 -33 -31 -55
-32 -83 -1 -21 21 -21 24 -6 41 10 10 17 32 17 49 0 30 0 30 35 19 19 -6 35
-14 35 -18z m-660 -9 c7 -11 9 -23 7 -26 -3 -2 -8 5 -12 16 -3 12 -11 19 -16
16 -5 -4 -9 -1 -9 4 0 18 19 12 30 -10z m95 11 c3 -5 1 -10 -4 -10 -6 0 -11 5
-11 10 0 6 2 10 4 10 3 0 8 -4 11 -10z m179 -17 c-9 -37 -23 -53 -45 -53 -19
0 -19 1 -2 26 15 24 18 25 23 8 5 -14 8 -11 13 14 4 18 9 32 12 32 3 0 2 -12
-1 -27z m-199 -3 c3 -6 -1 -13 -10 -16 -19 -8 -30 0 -20 15 8 14 22 14 30 1z
m95 -5 c0 -9 7 -18 15 -21 28 -11 15 -22 -57 -52 -123 -50 -172 -63 -199 -54
-24 9 -24 10 11 24 19 8 59 23 89 34 29 10 70 33 90 51 41 36 51 40 51 18z
m396 -13 c-18 -16 -18 -16 -6 6 6 13 14 21 18 18 3 -4 -2 -14 -12 -24z m-226
-23 c0 -6 -12 -43 -27 -81 -27 -68 -78 -130 -178 -216 -28 -25 -51 -23 -62 3
-9 25 4 43 120 179 70 83 114 126 127 126 11 0 20 -5 20 -11z m408 -43 c12 -4
22 -12 22 -17 0 -5 9 -18 21 -30 l21 -21 -21 6 c-12 3 -30 8 -41 12 -32 9 -63
-14 -56 -42 9 -33 0 -30 -19 6 -14 27 -14 30 5 40 14 8 20 21 20 48 1 31 3 35
13 21 7 -9 22 -19 35 -23z m-1008 4 c0 -42 34 -60 112 -60 44 0 68 -4 62 -9
-19 -19 -379 -151 -410 -151 -14 0 9 55 39 92 37 47 163 148 183 148 8 0 14
-9 14 -20z m935 -37 c-26 -18 -32 -7 -9 18 12 14 20 17 23 8 2 -7 -4 -18 -14
-26z m91 -33 c20 0 17 -17 -6 -40 -27 -27 -47 -25 -54 7 -8 28 8 47 32 38 8
-3 20 -5 28 -5z m81 -46 c52 -35 64 -57 26 -49 -26 5 -26 5 -5 -5 26 -11 21
-30 -7 -30 -10 0 -23 -11 -29 -25 -15 -32 -27 -32 -63 4 -36 37 -36 42 1 64
20 12 30 26 30 43 0 30 1 30 47 -2z m-1347 1 c-7 -8 -9 -22 -6 -31 8 -21 -15
-85 -29 -81 -5 2 -11 20 -13 40 -2 28 3 42 22 62 27 27 46 35 26 10z m1290
-13 c0 -9 -44 -32 -58 -32 -10 1 38 40 49 40 5 0 9 -4 9 -8z m-521 -44 c-25
-50 -87 -118 -107 -118 -9 0 0 18 23 48 41 50 97 112 102 112 2 0 -6 -19 -18
-42z m663 -31 c14 -7 32 -20 41 -29 15 -14 13 -16 -25 -22 -67 -11 -81 -23
-75 -63 5 -29 4 -33 -8 -23 -27 23 -28 50 -2 70 13 11 27 33 30 50 7 34 7 34
39 17z m1234 -43 c5 -21 2 -31 -17 -45 -24 -18 -24 -18 -27 12 -2 17 -1 37 2
45 9 23 35 16 42 -12z m104 -21 c0 -28 6 -53 15 -64 14 -15 14 -18 0 -33 -14
-13 -15 -23 -7 -54 9 -32 10 -33 11 -10 1 15 6 30 12 33 6 4 8 12 6 19 -8 19
41 18 52 -2 13 -24 35 -167 28 -183 -3 -8 -6 3 -6 23 -1 36 -3 38 -41 44 -22
4 -40 11 -40 17 0 6 -2 8 -5 5 -3 -2 2 -40 10 -83 9 -43 13 -80 11 -82 -4 -4
-16 46 -32 130 -4 26 -9 35 -15 26 -12 -21 -62 1 -70 31 -14 49 -9 3 11 -98
27 -141 24 -162 -5 -29 -27 122 -33 142 -34 110 -1 -19 -7 -23 -36 -23 -20 0
-35 5 -35 12 0 6 -2 9 -5 7 -2 -3 7 -59 20 -124 14 -66 25 -127 24 -135 -1
-28 -15 23 -38 135 l-23 110 -44 1 c-24 0 -44 -2 -44 -5 0 -3 11 -67 24 -141
14 -74 23 -137 21 -139 -5 -4 -7 5 -41 174 -25 126 -34 157 -34 121 0 -15 -7
-17 -35 -14 -19 2 -35 1 -35 -3 0 -4 9 -80 21 -169 11 -89 18 -164 16 -167 -3
-2 -8 13 -11 34 -32 221 -50 323 -55 315 -3 -5 -27 -11 -53 -14 -47 -5 -48 -5
-48 23 0 23 5 29 23 30 12 1 15 3 7 5 -8 2 -40 -2 -70 -10 -37 -9 -46 -14 -28
-15 18 -1 29 -8 33 -22 8 -25 6 -27 -33 -35 -33 -7 -36 -2 -35 44 1 16 -20 10
-109 -30 -38 -17 -65 -35 -61 -41 3 -6 1 -7 -6 -3 -17 11 -76 -37 -92 -75 -21
-53 -47 -73 -75 -60 -13 6 -24 17 -24 25 0 7 -7 16 -15 20 -8 3 -15 12 -15 19
0 16 174 122 280 170 68 31 212 67 267 67 15 0 21 5 17 14 -7 18 12 30 34 21
15 -6 15 -8 -3 -15 -16 -7 -12 -9 18 -9 24 -1 40 -6 44 -16 8 -22 1 -26 -59
-35 -29 -4 -43 -8 -30 -9 13 -1 22 -8 23 -18 1 -17 2 -17 6 0 6 24 23 21 24
-5 l2 -23 4 22 c2 12 13 25 24 28 10 4 19 14 19 23 0 15 2 15 10 2 8 -13 10
-13 10 2 0 9 -7 21 -16 26 -18 10 -11 32 11 32 8 0 19 -23 28 -62 l15 -63 1
47 c1 37 5 48 21 53 11 3 24 3 30 0 5 -3 10 1 10 9 0 19 -5 20 -31 6 -12 -7
-19 -7 -19 -1 0 14 38 33 50 26 6 -3 10 3 10 14 0 12 -5 21 -11 21 -5 0 -7 -6
-3 -12 5 -9 2 -8 -10 1 -10 9 -16 25 -14 40 2 20 9 27 31 29 26 3 27 1 27 -37
0 -23 0 -44 -1 -47 -2 -14 26 -22 42 -13 30 16 37 10 50 -41 12 -46 14 -48 26
-30 8 11 11 25 8 30 -3 6 3 10 14 10 15 0 23 -10 30 -37 6 -21 11 -44 11 -52
0 -8 3 -12 6 -8 3 3 1 29 -6 56 -12 50 -13 51 -48 51 l-37 1 34 14 c36 16 51
13 51 -12 0 -9 2 -14 5 -11 3 3 2 19 -1 37 -5 25 -11 32 -25 28 -16 -4 -19 1
-19 27 0 37 6 46 32 46 15 0 18 -8 18 -47z m207 36 c8 -8 8 -18 1 -35 -8 -17
-8 -34 0 -62 8 -26 9 -49 2 -72 -5 -19 -8 -66 -6 -105 3 -38 3 -56 0 -40 -13
84 -26 135 -35 135 -6 0 -6 -7 1 -19 15 -29 12 -58 -6 -65 -28 -11 -32 -7 -39
35 -6 34 -4 44 10 52 14 8 15 11 4 19 -10 7 -6 8 14 4 15 -4 27 -2 27 4 0 5
-4 10 -10 10 -11 0 -14 108 -4 134 7 19 25 21 41 5z m-1607 -17 c0 -12 -49
-37 -56 -29 -11 10 17 37 37 37 11 0 19 -4 19 -8z m1110 -24 c0 -18 -5 -40
-10 -48 -8 -13 -10 -12 -10 4 0 13 -5 17 -20 13 -23 -6 -24 1 -10 37 6 16 17
26 30 26 16 0 20 -6 20 -32z m-1854 -35 c19 -7 6 -21 -111 -126 -140 -125
-185 -160 -241 -183 -30 -12 -34 -12 -34 0 0 8 19 30 41 48 44 35 181 191 239
271 l34 47 25 -24 c14 -14 35 -28 47 -33z m1754 45 c-1 -16 -29 -67 -30 -53 0
5 -12 -3 -26 -18 -14 -16 -28 -27 -30 -24 -2 2 6 27 18 55 17 41 27 52 45 52
13 0 23 -6 23 -12z m-799 -31 c24 -29 23 -37 -3 -38 -13 0 -17 -3 -10 -6 6 -2
12 -9 12 -13 0 -12 -53 -100 -60 -100 -3 0 -12 16 -19 36 -11 31 -11 38 5 55
9 10 24 19 33 20 11 0 12 2 3 6 -21 8 -62 -25 -62 -52 0 -13 5 -27 10 -30 6
-3 10 -11 10 -17 0 -7 -13 1 -29 16 l-29 28 24 35 c46 68 17 89 -35 26 l-30
-37 -11 28 c-21 55 -7 64 93 64 70 0 82 -2 98 -21z m672 16 c4 -3 2 -12 -4
-20 -6 -7 -9 -24 -7 -38 6 -28 -7 -43 -16 -20 -5 13 -10 14 -27 4 -20 -10 -21
-9 -15 17 10 41 52 75 69 57z m-103 -35 c0 -7 -4 -20 -9 -27 -6 -9 -6 -22 -1
-32 7 -12 5 -18 -8 -23 -9 -3 -35 -12 -57 -20 -47 -18 -65 -20 -65 -6 0 6 8
10 18 10 10 0 28 8 41 17 14 9 21 12 18 6 -5 -7 0 -9 13 -6 26 7 26 33 0 33
-24 0 -25 8 -4 38 16 24 54 30 54 10z m1666 -25 c-3 -16 -9 -61 -12 -100 l-7
-73 -48 0 c-48 0 -49 1 -49 30 0 17 4 38 9 48 5 9 14 28 20 42 31 67 42 80 68
80 22 0 25 -3 19 -27z m-2366 -18 c-13 -14 -26 -23 -28 -20 -3 3 5 16 18 30
13 14 26 23 28 20 3 -3 -5 -16 -18 -30z m560 7 c0 -15 5 -33 12 -40 9 -9 8
-12 -5 -12 -9 0 -17 4 -17 10 0 5 -6 7 -14 4 -19 -7 -31 33 -16 51 20 24 40
18 40 -13z m1932 22 c8 -8 -12 -78 -24 -85 -7 -4 -6 -19 2 -42 16 -42 7 -72
-18 -62 -20 9 -30 9 -59 0 -20 -6 -21 -3 -25 49 -3 53 -2 56 25 65 15 6 37 26
48 45 19 33 38 44 51 30z m-2255 -34 c6 -24 12 -25 41 -4 21 14 24 14 52 -9
l29 -25 -33 -6 c-39 -8 -49 -18 -65 -67 -14 -44 -6 -68 27 -80 14 -5 22 -12
19 -15 -8 -8 -67 25 -74 42 -3 8 0 21 7 29 10 13 11 27 1 70 -7 30 -17 55 -23
55 -21 0 -66 -40 -78 -70 -12 -28 -11 -33 10 -55 28 -30 13 -33 -23 -5 l-25
20 25 47 c14 26 23 57 20 70 -4 21 -1 23 40 23 36 0 46 -4 50 -20z m203 -5 c0
-14 5 -25 11 -25 5 0 7 -5 4 -11 -5 -7 4 -9 26 -7 25 2 33 -1 31 -11 -2 -11 0
-12 11 -3 16 14 27 6 27 -19 0 -11 -5 -16 -13 -13 -8 3 -20 -2 -27 -11 -7 -8
-17 -15 -23 -15 -5 0 -2 9 8 20 18 19 17 20 -1 20 -11 0 -26 6 -33 13 -11 10
-13 5 -8 -28 5 -33 4 -37 -6 -21 -7 10 -20 28 -29 40 l-18 21 -19 -23 c-18
-21 -20 -21 -30 -5 -15 27 -37 2 -22 -25 6 -11 11 -32 11 -46 0 -22 -5 -26
-29 -26 -43 0 -52 18 -37 70 11 37 18 45 37 46 13 1 38 8 56 17 18 10 40 17
50 17 14 0 15 2 4 9 -8 5 -11 16 -8 25 10 25 27 19 27 -9z m2176 1 c-3 -13 -9
-31 -12 -40 -5 -12 0 -16 20 -16 17 0 34 11 53 35 30 37 61 49 47 18 -4 -10
-9 -38 -11 -63 -7 -88 -9 -90 -58 -90 l-45 0 0 41 c0 23 -7 47 -15 56 -20 20
-30 11 -16 -15 6 -12 11 -35 11 -52 0 -30 -1 -31 -34 -24 -74 13 -66 -25 24
-124 33 -36 60 -71 60 -78 0 -22 -22 -28 -33 -9 -5 11 -44 55 -85 99 -75 80
-75 80 -53 97 24 19 29 77 9 97 -9 9 -6 12 16 12 39 0 61 15 76 50 16 38 56
44 46 6z m201 -79 l4 -77 -51 0 -51 0 3 45 c2 35 7 45 21 45 10 0 24 15 34 35
9 20 21 34 27 32 5 -2 11 -38 13 -80z m110 38 c1 -11 5 -38 9 -61 l6 -40 -51
-1 -51 -1 0 39 c0 24 -5 39 -12 40 -7 0 2 5 20 10 18 6 36 17 39 25 8 21 38
13 40 -11z m-2703 6 c3 -4 1 -21 -4 -37 -5 -16 -12 -42 -15 -58 l-6 -29 -25
23 c-13 13 -24 33 -24 45 0 39 58 83 74 56z m2834 -28 c6 -15 12 -39 12 -54 0
-25 -3 -27 -52 -31 -58 -4 -71 4 -63 41 4 14 0 30 -11 42 -19 21 -9 24 30 10
18 -7 28 -6 36 5 18 21 34 17 48 -13z m136 -11 c3 -15 8 -37 12 -49 6 -22 4
-23 -55 -23 l-61 0 0 34 c0 19 -7 39 -17 47 -14 12 -11 15 28 19 67 8 86 2 93
-28z m-3079 -1 c-3 -12 -10 -21 -15 -21 -5 0 -4 11 2 25 13 29 23 26 13 -4z
m4320 19 c38 0 59 -5 71 -17 17 -17 18 -17 11 0 -5 15 0 17 38 17 47 0 95 -17
95 -33 0 -6 3 -7 6 -4 4 4 1 13 -5 21 -11 13 4 14 111 11 137 -4 178 -14 178
-45 0 -16 -7 -20 -34 -20 -68 0 -96 11 -96 36 0 13 -4 24 -8 24 -5 0 -8 -10
-8 -22 1 -20 -5 -23 -39 -26 -22 -1 -51 -5 -65 -9 l-25 -6 30 -7 c23 -6 16 -8
-30 -8 -38 0 -51 2 -36 7 14 4 26 11 28 16 2 6 -48 9 -132 7 -127 -2 -135 -1
-135 17 0 10 -10 26 -22 35 -18 13 -19 16 -5 12 10 -3 43 -6 72 -6z m-1037
-13 c55 0 69 -3 84 -21 9 -11 17 -29 18 -38 0 -15 -10 -18 -65 -18 -45 0 -65
4 -66 13 -1 6 -2 21 -3 31 0 11 -7 21 -15 24 -10 3 -11 -2 -6 -19 4 -13 8 -28
9 -34 0 -6 -29 -11 -65 -13 l-67 -3 -4 40 -3 40 50 3 c27 2 54 1 59 -1 5 -2
38 -4 74 -4z m650 2 c26 -9 49 -35 40 -44 -2 -2 -67 -6 -145 -10 -124 -7 -143
-5 -143 8 0 8 -10 21 -22 30 -21 14 -17 15 58 12 45 -1 87 -6 95 -10 12 -8 12
-6 0 8 -12 16 -9 17 36 17 28 0 64 -5 81 -11z m172 -9 c11 -11 20 -16 20 -12
0 4 -5 13 -12 20 -9 9 1 12 45 12 66 0 107 -16 107 -41 0 -16 -12 -18 -140
-18 -131 0 -140 1 -140 19 0 10 -8 24 -17 29 -14 8 -1 10 50 11 54 0 71 -4 87
-20z m845 6 c103 -3 145 -15 145 -41 0 -12 -14 -15 -59 -15 -54 0 -60 2 -63
22 -2 12 -10 23 -18 26 -12 4 -13 2 -2 -9 28 -30 14 -40 -50 -37 -53 3 -63 6
-67 23 -2 11 -11 25 -20 32 -14 12 -13 13 9 8 14 -3 70 -7 125 -9z m-4636 -34
l19 -38 -32 -22 c-40 -27 -66 -20 -66 17 0 22 5 26 28 26 15 0 33 -6 40 -15
10 -12 10 -10 1 13 -13 29 -25 35 -32 15 -2 -7 -7 -10 -11 -6 -9 8 11 48 24
48 5 0 18 -17 29 -38z m1745 28 c32 -5 61 -12 64 -14 2 -3 2 -17 -2 -31 -6
-22 -9 -24 -27 -14 -12 6 -33 9 -48 6 -47 -10 -111 4 -111 22 0 41 26 47 124
31z m1590 -17 c40 -21 20 -36 -54 -41 l-60 -4 0 30 c0 17 -6 33 -12 36 -7 3
12 3 42 0 30 -4 68 -13 84 -21z m-134 -2 c23 -43 14 -51 -55 -51 l-65 0 0 29
c0 16 -6 32 -12 34 -7 3 17 6 54 6 57 1 69 -2 78 -18z m1860 5 c136 -9 217
-29 188 -48 -26 -16 -75 -9 -92 15 -10 14 -14 16 -10 5 5 -15 0 -18 -40 -18
-35 0 -48 4 -56 20 -6 11 -16 20 -22 20 -7 0 -6 -5 2 -15 11 -13 5 -15 -43
-15 -46 0 -55 3 -60 20 -3 11 -10 20 -15 20 -6 0 -8 -9 -5 -20 5 -18 0 -20
-48 -20 -46 1 -57 4 -72 26 l-19 25 104 -5 c56 -3 141 -8 188 -10z m-4665
-131 c35 -155 37 -261 7 -329 -29 -65 -28 -67 14 -18 19 23 40 42 46 42 5 0
-9 -21 -31 -46 -23 -26 -41 -51 -41 -55 0 -5 -6 -9 -13 -9 -7 0 -21 -13 -30
-30 -17 -27 -37 -40 -37 -23 0 4 15 43 34 88 19 44 37 94 41 110 3 17 -15 -22
-41 -85 -50 -123 -51 -126 -59 -118 -6 6 63 196 85 238 10 18 14 20 21 9 7
-11 9 -11 9 3 0 9 4 18 9 20 8 3 -16 146 -48 278 -13 57 -14 67 -2 55 5 -6 21
-64 36 -130z m-594 102 c-10 -9 -11 -8 -5 6 3 10 9 15 12 12 3 -3 0 -11 -7
-18z m5555 -2 c28 -2 62 -9 75 -16 24 -14 23 -14 -15 -17 -29 -3 -42 1 -49 13
-8 14 -10 15 -20 2 -16 -21 -70 -11 -86 15 -12 19 -11 20 16 13 15 -5 51 -9
79 -10z m-5065 -117 c30 -136 18 -151 -14 -18 -15 63 -27 122 -27 130 1 33 21
-22 41 -112z m-51 105 c0 -5 -12 -16 -26 -26 -20 -15 -28 -16 -40 -6 -13 11
-12 14 8 25 26 15 58 18 58 7z m3619 -9 c2 -2 -16 -4 -40 -4 -31 0 -40 3 -29
10 13 8 57 4 69 -6z m136 6 c14 -6 -3 -8 -50 -8 -56 1 -63 2 -35 8 48 10 62
10 85 0z m135 0 c21 -7 18 -8 -18 -9 -26 -1 -41 3 -37 9 7 11 19 11 55 0z
m260 0 c11 -7 1 -9 -35 -9 -40 1 -45 3 -25 9 35 11 43 11 60 0z m-822 -15 c2
-2 -22 -5 -52 -7 -57 -3 -78 8 -28 15 24 3 72 -2 80 -8z m122 5 c11 -7 -3 -9
-45 -9 -48 1 -54 3 -30 9 43 11 58 11 75 0z m889 -6 c10 -9 -56 -3 -69 7 -11
7 -4 8 25 3 22 -4 42 -8 44 -10z m140 0 c2 -2 -25 -4 -60 -3 -44 0 -58 3 -44
9 18 7 94 3 104 -6z m96 6 c15 -6 7 -9 -30 -9 -36 -1 -46 2 -35 9 18 12 38 12
65 0z m130 0 c14 -6 5 -9 -35 -9 -40 0 -49 3 -35 9 11 5 27 9 35 9 8 0 24 -4
35 -9z m-1515 -10 c0 -6 -27 -10 -62 -9 -45 0 -57 3 -43 9 28 12 105 12 105 0z
m1648 3 c-10 -2 -28 -2 -40 0 -13 2 -5 4 17 4 22 1 32 -1 23 -4z m-4894 -101
c9 -37 19 -76 23 -87 3 -13 2 -17 -4 -10 -10 10 -63 174 -63 191 1 26 30 -36
44 -94z m1789 63 c22 -19 44 -35 49 -35 4 0 8 -7 8 -15 0 -12 -15 -6 -57 21
-71 45 -66 40 -58 53 9 16 13 14 58 -24z m442 27 c11 -8 55 -97 55 -112 0 -18
-29 -10 -35 10 -3 10 -19 30 -36 44 -32 27 -35 36 -17 54 14 14 19 15 33 4z
m245 -11 c0 -11 5 -23 10 -26 22 -14 10 -35 -21 -35 -26 0 -30 3 -24 18 4 9 9
26 10 37 4 26 4 25 15 25 6 0 10 -9 10 -19z m154 -32 c-7 -13 -64 -11 -64 1 0
6 5 19 12 30 12 19 13 19 35 -2 12 -11 20 -25 17 -29z m158 31 c10 0 18 -4 18
-10 0 -5 -23 -10 -51 -10 l-51 0 23 19 c15 12 28 16 34 10 5 -5 17 -9 27 -9z
m151 10 c10 0 15 -4 12 -10 -3 -5 -34 -9 -68 -9 -34 1 -53 3 -42 6 11 3 25 9
30 14 6 6 19 8 30 5 11 -3 28 -6 38 -6z m146 1 c9 -6 -4 -10 -40 -13 -59 -5
-84 1 -53 13 26 11 76 10 93 0z m1919 2 c-10 -2 -26 -2 -35 0 -10 3 -2 5 17 5
19 0 27 -2 18 -5z m75 0 c-7 -2 -19 -2 -25 0 -7 3 -2 5 12 5 14 0 19 -2 13 -5z
m-3049 -57 c7 -18 28 -49 46 -70 23 -26 30 -40 22 -48 -12 -12 -15 -8 -87 89
-26 35 -44 67 -40 73 10 17 44 -8 59 -44z m129 -7 c40 -67 44 -79 25 -79 -7 1
-26 21 -41 45 -15 24 -37 47 -47 50 -20 6 -26 25 -13 38 19 19 43 2 76 -54z
m206 39 c21 -57 22 -68 9 -68 -12 0 -48 63 -48 83 0 17 31 4 39 -15z m2829 15
c-10 -2 -28 -2 -40 0 -13 2 -5 4 17 4 22 1 32 -1 23 -4z m-4043 -53 c-3 -5
-36 -27 -73 -49 -65 -38 -200 -167 -267 -254 -22 -30 -26 -40 -15 -47 9 -6 7
-9 -8 -14 -12 -4 -19 -13 -16 -20 5 -14 -33 -53 -42 -43 -4 3 -22 -5 -40 -19
-18 -14 -38 -24 -44 -22 -6 2 9 18 34 35 26 18 46 27 46 21 0 -6 9 -3 20 7 11
10 17 22 14 26 -3 5 2 12 11 15 13 6 14 8 3 15 -21 14 -28 10 -28 -15 0 -25
-20 -48 -20 -24 -1 8 -6 7 -14 -5 -8 -10 -21 -19 -29 -21 -8 -1 -29 -14 -46
-29 -18 -15 -37 -27 -43 -27 -19 0 11 27 78 70 64 42 84 61 42 39 -13 -6 -32
-19 -42 -28 -18 -15 -19 -15 -13 2 10 28 -6 20 -53 -28 -24 -25 -51 -45 -59
-45 -17 0 74 86 102 95 9 4 17 12 17 18 0 21 333 353 375 375 40 20 40 20 78
1 21 -11 35 -24 32 -29z m4465 40 c8 -5 11 -10 5 -10 -5 0 -17 5 -25 10 -8 5
-10 10 -5 10 6 0 17 -5 25 -10z m-5721 -95 c12 -31 21 -59 21 -63 0 -4 53 -15
118 -25 136 -19 188 -35 173 -50 -6 -6 -42 -4 -107 8 -70 12 -119 15 -174 11
-72 -7 -80 -5 -98 14 -23 25 -34 68 -19 77 5 3 7 1 4 -4 -7 -12 42 -33 74 -33
24 0 24 -3 -6 64 -14 31 -21 56 -16 56 5 0 19 -25 30 -55z m-200 -63 c1 -24
-3 -41 -8 -38 -12 8 -21 70 -14 97 6 22 7 22 14 3 4 -10 8 -38 8 -62z m68 10
c6 -4 17 -30 24 -57 14 -58 21 -69 71 -106 35 -24 36 -27 17 -32 -29 -8 -60 6
-104 44 -37 33 -57 67 -48 82 3 4 12 2 20 -5 14 -11 15 -10 8 12 -4 14 -12 30
-17 37 -17 22 4 41 29 25z m283 -116 c0 -26 -7 -41 -31 -60 -17 -14 -38 -26
-47 -26 -11 0 -6 7 13 18 44 28 58 48 51 77 -4 14 -2 25 4 25 5 0 10 -15 10
-34z m-95 -35 c-4 -23 -12 -44 -17 -48 -8 -4 -9 2 -4 18 3 13 9 37 13 52 9 42
16 24 8 -22z m195 28 c0 -11 -4 -17 -10 -14 -5 3 -10 13 -10 21 0 8 5 14 10
14 6 0 10 -9 10 -21z m-17 -50 c-6 -6 -37 -19 -69 -29 l-59 -20 43 3 c26 2 40
-1 37 -8 -3 -5 -8 -18 -11 -27 -4 -10 -11 -18 -16 -18 -23 0 -178 52 -178 59
0 12 39 21 45 11 8 -12 57 -19 74 -9 9 4 40 15 68 24 29 9 56 21 59 26 3 6 9
8 12 4 3 -3 1 -10 -5 -16z m246 -57 c-19 -21 -44 -50 -56 -65 -20 -24 -43 -36
-43 -23 0 7 121 126 127 126 3 0 -10 -17 -28 -38z m-82 -27 c-23 -30 -50 -55
-60 -55 -13 0 -1 16 38 55 31 30 59 55 61 55 2 0 -15 -25 -39 -55z m-164 38
c-7 -2 -19 -2 -25 0 -7 3 -2 5 12 5 14 0 19 -2 13 -5z m300 -20 c-16 -16 -38
-40 -47 -55 -10 -16 -26 -28 -36 -28 -13 0 -1 16 38 55 32 30 61 55 66 55 4 0
-5 -12 -21 -27z m48 -5 c-17 -18 -41 -46 -55 -63 -13 -16 -28 -27 -32 -22 -4
4 17 32 46 62 58 59 90 76 41 23z m28 -38 c-46 -53 -69 -71 -69 -55 0 8 107
115 115 115 3 0 -17 -27 -46 -60z m-389 21 c-10 -20 -30 -29 -30 -14 0 10 33
44 37 39 3 -2 0 -14 -7 -25z m450 -27 c-33 -31 -63 -54 -68 -53 -11 4 103 109
118 109 5 0 -18 -25 -50 -56z m551 7 c-12 -16 -43 -48 -69 -71 -26 -23 -48
-46 -48 -51 -1 -5 -3 -12 -4 -16 -2 -5 -3 -15 -4 -23 -1 -9 -13 -16 -31 -18
-16 -2 -55 -10 -85 -18 l-55 -16 -31 36 c-41 47 -49 85 -23 109 10 10 19 22
19 28 0 6 4 7 10 4 5 -3 25 5 42 18 36 26 78 50 78 44 0 -3 -18 -16 -40 -31
-23 -15 -38 -31 -35 -35 6 -10 -19 -33 -31 -29 -5 2 -19 -4 -32 -13 -22 -16
-22 -17 -2 -22 11 -3 20 -2 20 1 0 9 117 95 158 116 47 24 39 12 -11 -17 -55
-33 -73 -53 -53 -60 8 -3 47 17 88 45 84 59 75 47 -30 -37 -68 -54 -72 -60
-52 -67 12 -4 26 -6 31 -3 4 3 17 0 28 -7 17 -10 23 -10 33 1 11 11 9 12 -9 6
-36 -10 -27 1 36 45 33 23 72 60 87 81 15 22 29 37 32 35 2 -3 -5 -18 -17 -35z
m-291 -2 c-12 -16 -25 -28 -27 -25 -3 3 -25 -11 -50 -31 -24 -20 -47 -33 -51
-29 -4 4 1 12 11 18 10 5 33 22 50 37 33 28 79 61 85 61 2 0 -6 -14 -18 -31z
m244 0 c-33 -36 -142 -119 -155 -119 -19 0 -7 16 25 34 19 10 60 40 92 66 69
57 79 62 38 19z m-834 -119 c52 -26 83 -50 65 -50 -4 0 -38 16 -76 36 -67 36
-70 36 -84 18 -8 -10 -15 -14 -15 -8 0 14 21 34 37 34 8 0 40 -13 73 -30z m73
-81 c-6 -6 -31 3 -69 26 -94 57 -97 71 -5 25 53 -26 80 -45 74 -51z m-123 41
c0 -14 -14 -12 -28 2 -19 19 -14 30 8 18 11 -6 20 -15 20 -20z m180 -16 c22
-9 40 -22 40 -30 0 -10 -6 -11 -26 -4 -42 16 -64 30 -64 40 0 13 3 13 50 -6z
m-81 -61 c40 -36 53 -54 48 -66 -5 -14 -19 -5 -72 48 -101 101 -83 114 24 18z
m94 7 c43 -27 66 -59 33 -47 -30 12 -96 58 -96 67 0 16 13 12 63 -20z m116 -6
c28 -15 51 -33 51 -40 0 -10 -10 -8 -35 7 -19 12 -38 25 -41 30 -3 5 -14 9
-24 9 -10 0 -22 5 -25 10 -11 18 22 11 74 -16z m729 -11 c2 -18 1 -33 -2 -33
-3 0 -31 12 -62 27 -50 25 -53 29 -32 35 13 3 39 6 58 5 32 -2 35 -5 38 -34z
m-710 -70 c28 -19 52 -38 52 -43 0 -15 -15 -12 -41 9 -13 10 -39 26 -56 35
-18 9 -33 23 -33 32 0 9 5 12 13 8 6 -4 36 -23 65 -41z m-122 -69 l6 -39 -19
28 c-11 15 -28 34 -38 41 -17 12 -17 16 -5 30 12 16 15 16 32 -2 10 -10 21
-36 24 -58z m244 -19 c24 -25 41 -45 37 -45 -15 0 -97 65 -97 77 0 22 14 15
60 -32z m1006 -83 c27 -17 24 -49 -12 -108 -19 -32 -47 -70 -61 -84 -16 -15
-7 3 22 45 48 70 48 70 -65 -48 -82 -86 -115 -115 -121 -105 -8 12 -10 11 -13
-12 -3 -25 -53 -90 -69 -90 -11 0 -16 5 -12 13 4 6 -1 3 -10 -8 -56 -69 -93
-108 -110 -115 -18 -8 -19 -9 -1 -9 15 -1 17 -6 12 -33 -3 -18 -9 -53 -12 -78
-4 -25 -11 -50 -16 -57 -5 -7 -5 -12 3 -15 7 -2 -1 -22 -21 -51 -25 -38 -35
-46 -46 -36 -11 9 -11 15 1 40 8 15 15 35 15 44 0 8 7 15 16 15 12 0 14 4 7
13 -6 7 -6 41 -1 87 4 41 8 90 8 108 -1 30 1 32 35 32 28 0 35 4 35 19 0 11 5
23 10 26 6 4 8 11 4 16 -3 6 3 13 14 16 24 6 300 302 325 349 18 33 40 42 63
26z m-495 -293 c10 -26 10 -34 1 -37 -10 -3 -10 -7 0 -19 10 -12 8 -18 -12
-33 -25 -19 -25 -19 -28 1 -2 11 2 27 8 35 10 11 9 14 -9 14 -18 0 -19 3 -9
25 9 20 8 28 -5 43 -25 28 -21 34 12 18 15 -8 34 -30 42 -47z m47 -108 c24 -1
27 -8 13 -30 -7 -11 -15 -11 -45 -1 -40 13 -50 38 -13 34 12 -1 32 -3 45 -3z
m142 -40 c0 -16 -3 -36 -6 -45 -12 -31 -24 -16 -24 29 0 33 4 45 15 45 10 0
15 -10 15 -29z m3 -98 c7 -37 3 -39 -22 -14 -26 26 -27 41 -2 41 12 0 20 -9
24 -27z m1241 -184 c5 -5 7 -12 3 -15 -9 -10 -68 17 -61 28 6 9 43 2 58 -13z
m-1486 -129 c-49 -62 -68 -45 -27 24 18 30 24 34 40 25 18 -9 18 -12 -13 -49z
m1521 -46 c1 -10 10 -27 18 -36 8 -9 12 -22 8 -27 -10 -17 -36 -13 -52 7 -12
13 -12 12 0 -8 9 -14 21 -23 29 -21 7 2 20 5 29 8 12 3 18 -8 28 -50 11 -52 7
-107 -8 -107 -4 0 -12 5 -18 11 -7 7 -12 6 -16 -4 -3 -9 0 -14 10 -13 30 2 24
-23 -9 -40 -40 -21 -98 -35 -98 -24 0 13 51 42 65 36 8 -3 17 -1 20 4 4 6 -6
10 -20 10 -25 0 -25 1 -11 22 9 12 16 31 16 41 0 14 5 18 20 14 22 -6 28 17 8
29 -7 4 -8 3 -4 -4 4 -7 1 -12 -7 -12 -8 0 -18 11 -21 25 -3 13 -20 40 -36 59
-27 30 -29 35 -13 39 14 4 14 5 -4 6 -12 0 -24 5 -28 10 -3 6 4 9 16 8 12 -1
29 8 38 20 19 26 35 24 40 -3z"/>
<path d="M1137 2912 c-15 -16 -15 -21 -2 -38 14 -18 14 -18 9 2 -4 15 1 27 17
38 17 11 19 16 8 16 -9 0 -23 -8 -32 -18z"/>
<path d="M279 2729 c-15 -15 -18 -24 -11 -31 14 -14 62 16 62 37 0 22 -27 18
-51 -6z"/>
<path d="M347 2688 c-65 -18 -70 -19 -88 -2 -10 9 -19 12 -19 6 0 -27 39 -33
102 -16 58 15 106 34 83 33 -5 0 -41 -10 -78 -21z"/>
<path d="M1411 2616 c-8 -9 -8 -20 -1 -37 10 -23 10 -23 7 4 -3 18 1 31 12 37
9 5 11 10 5 10 -6 0 -17 -6 -23 -14z"/>
<path d="M2704 2425 c-6 -25 2 -62 12 -53 2 3 9 19 13 36 7 23 6 32 -5 36 -9
3 -16 -4 -20 -19z"/>
<path d="M2768 2422 c20 -22 25 -21 16 2 -3 9 -12 16 -20 16 -11 0 -10 -4 4
-18z"/>
<path d="M2965 2400 c3 -5 8 -10 11 -10 2 0 4 5 4 10 0 6 -5 10 -11 10 -5 0
-7 -4 -4 -10z"/>
<path d="M2981 2364 c0 -11 3 -14 6 -6 3 7 2 16 -1 19 -3 4 -6 -2 -5 -13z"/>
<path d="M2581 2354 c0 -11 3 -14 6 -6 3 7 2 16 -1 19 -3 4 -6 -2 -5 -13z"/>
<path d="M2711 2344 c0 -11 3 -14 6 -6 3 7 2 16 -1 19 -3 4 -6 -2 -5 -13z"/>
<path d="M3092 2395 c0 -16 2 -22 5 -12 2 9 2 23 0 30 -3 6 -5 -1 -5 -18z"/>
<path d="M3876 2371 c-4 -5 3 -7 16 -3 17 4 20 2 15 -11 -4 -10 -2 -17 4 -17
6 0 9 8 7 17 -4 20 -33 29 -42 14z"/>
<path d="M4010 2346 c0 -9 5 -16 10 -16 6 0 10 4 10 9 0 6 -4 13 -10 16 -5 3
-10 -1 -10 -9z"/>
<path d="M4250 2350 c0 -5 5 -10 11 -10 5 0 7 -5 3 -12 -4 -7 -3 -8 5 -4 9 6
9 11 0 22 -14 17 -19 18 -19 4z"/>
<path d="M4120 2340 c-12 -8 -11 -10 8 -10 12 0 22 5 22 10 0 13 -11 13 -30 0z"/>
<path d="M4340 2330 c0 -5 5 -10 10 -10 6 0 10 5 10 10 0 6 -4 10 -10 10 -5 0
-10 -4 -10 -10z"/>
<path d="M2876 1854 c-22 -22 -20 -25 9 -12 14 6 25 15 25 20 0 13 -17 9 -34
-8z"/>
<path d="M3021 1719 c-17 -14 -19 -19 -8 -19 8 0 23 -3 31 -6 11 -4 15 -2 11
8 -4 9 3 19 17 25 l23 10 -25 0 c-14 0 -36 -8 -49 -18z"/>
<path d="M3817 1309 c7 -7 15 -10 18 -7 3 3 -2 9 -12 12 -14 6 -15 5 -6 -5z"/>
<path d="M3421 2386 c2 -2 14 -9 26 -15 19 -10 22 -9 17 4 -4 8 -15 15 -27 15
-11 0 -18 -2 -16 -4z"/>
<path d="M3218 2358 c9 -9 15 -9 24 0 9 9 7 12 -12 12 -19 0 -21 -3 -12 -12z"/>
<path d="M3433 2220 c0 -25 2 -35 4 -22 2 12 2 32 0 45 -2 12 -4 2 -4 -23z"/>
<path d="M3411 2094 c0 -11 3 -14 6 -6 3 7 2 16 -1 19 -3 4 -6 -2 -5 -13z"/>
<path d="M3403 1990 c0 -36 2 -50 4 -32 2 17 2 47 0 65 -2 17 -4 3 -4 -33z"/>
<path d="M3568 1453 c7 -3 16 -2 19 1 4 3 -2 6 -13 5 -11 0 -14 -3 -6 -6z"/>
<path d="M3660 1426 c0 -2 7 -7 16 -10 8 -3 12 -2 9 4 -6 10 -25 14 -25 6z"/>
<path d="M3850 1356 c0 -3 9 -10 20 -16 11 -6 20 -8 20 -6 0 3 -9 10 -20 16
-11 6 -20 8 -20 6z"/>
</g>
</svg>
